<?xml version="1.0" encoding="UTF-8"?>
<svg version="1.1" xmlns="http://www.w3.org/2000/svg" width="256" height="256">
<path d="M0 0 C0.77591368 -0.00382555 1.55182736 -0.00765109 2.35125357 -0.01159257 C4.94750017 -0.0218996 7.54352466 -0.01793481 10.13978577 -0.01396179 C12.00268763 -0.01830952 13.8655877 -0.02349288 15.72848511 -0.02944946 C20.78630197 -0.04284376 25.84404412 -0.04341767 30.90187526 -0.04088616 C35.12413941 -0.0398168 39.34638843 -0.04469891 43.56864935 -0.04949158 C53.52922195 -0.06058815 63.48975685 -0.06102326 73.45033264 -0.05497742 C83.72673255 -0.04893581 94.0029956 -0.06125306 104.27937216 -0.08254749 C113.10243253 -0.10015828 121.92544933 -0.10616569 130.74852663 -0.10290974 C136.01811828 -0.101096 141.28761229 -0.10374228 146.55718803 -0.11762428 C151.51236896 -0.13018957 156.46733636 -0.12827079 161.42251396 -0.11521339 C163.24057588 -0.11284528 165.05865277 -0.11559071 166.87669754 -0.12383652 C169.35969698 -0.1342858 171.84197757 -0.12621823 174.32495117 -0.11352539 C175.40253997 -0.12458682 175.40253997 -0.12458682 176.50189823 -0.13587171 C181.97710404 -0.07704237 186.03979201 1.24409856 190.08924866 4.97944641 C190.56749084 5.56725891 191.04573303 6.15507141 191.53846741 6.76069641 C192.02960022 7.34850891 192.52073303 7.93632141 193.02674866 8.54194641 C195.90250621 12.66355333 195.37129953 17.2064439 195.3664093 22.00906372 C195.36938042 22.91394222 195.37235155 23.81882073 195.3754127 24.75111979 C195.38411291 27.79574379 195.38560907 30.84032853 195.38710022 33.88496399 C195.39172744 36.06283655 195.39675197 38.2407083 195.40214539 40.4185791 C195.41528024 46.34423486 195.42171641 52.26987929 195.42615604 58.19554734 C195.42908489 61.89573396 195.43318933 65.59591747 195.43766022 69.29610252 C195.45133773 80.86756495 195.46100326 92.43902028 195.46486211 104.01049024 C195.46552525 105.98829615 195.46552525 105.98829615 195.46620178 108.00605774 C195.46653393 108.99702691 195.46653393 108.99702691 195.46687278 110.00801565 C195.47057515 120.04677905 195.4853943 130.08548236 195.50721741 140.1242218 C195.53247285 151.78044095 195.54739311 163.43661286 195.54890323 175.0928604 C195.5499525 181.26345251 195.5558864 187.43394861 195.57372284 193.60451698 C195.59017251 199.40833251 195.59237407 205.21197952 195.58358383 211.01581001 C195.58281181 213.14671021 195.58717787 215.27761935 195.59704208 217.40849686 C195.60971414 220.31632582 195.60391044 223.22355367 195.59346008 226.13137817 C195.60554469 227.39777884 195.60554469 227.39777884 195.61787343 228.68976337 C195.56932337 234.46146301 194.55629921 238.73440489 190.50721741 243.12397766 C189.91940491 243.60221985 189.33159241 244.08046204 188.72596741 244.57319641 C188.13815491 245.06432922 187.55034241 245.55546204 186.94471741 246.06147766 C183.12335571 248.72774593 179.1472362 248.40645182 174.69244385 248.40113831 C173.53113661 248.40559499 173.53113661 248.40559499 172.34636861 248.41014171 C169.74396816 248.41883509 167.14161367 248.42033749 164.53919983 248.42182922 C162.67659405 248.42645694 160.81398922 248.43148153 158.9513855 248.43687439 C153.88520651 248.45000471 148.81904078 248.45644456 143.75284743 248.46088505 C140.58869164 248.46381469 137.42453948 248.46791929 134.26038551 248.47238922 C124.36334633 248.48606568 114.46631543 248.49573167 104.56926745 248.49959111 C93.13921296 248.50407268 81.709278 248.52162454 70.27925986 248.55059171 C61.44775369 248.57219762 52.61628118 248.58229481 43.78474885 248.58363223 C38.50841162 248.58468102 33.23218674 248.5906046 27.9558773 248.60845184 C22.99252758 248.62491368 18.02937488 248.62709718 13.06600761 248.61831284 C11.24471764 248.61754146 9.42341716 248.62189845 7.60215378 248.63177109 C5.11468131 248.64446385 2.62790946 248.63862854 0.14044189 248.62818909 C-0.57931487 248.63624549 -1.29907164 248.6443019 -2.04063922 248.65260243 C-7.52165922 248.59884913 -11.58356545 247.28125311 -15.63731384 243.54194641 C-16.11555603 242.95413391 -16.59379822 242.36632141 -17.08653259 241.76069641 C-17.57766541 241.17288391 -18.06879822 240.58507141 -18.57481384 239.97944641 C-21.45057139 235.8578395 -20.91936472 231.31494893 -20.91447449 226.5123291 C-20.91744561 225.6074506 -20.92041673 224.70257209 -20.92347789 223.77027303 C-20.93217809 220.72564903 -20.93367425 217.68106429 -20.93516541 214.63642883 C-20.93979263 212.45855627 -20.94481716 210.28068452 -20.95021057 208.10281372 C-20.96334543 202.17715796 -20.9697816 196.25151353 -20.97422123 190.32584548 C-20.97715008 186.62565886 -20.98125452 182.92547535 -20.9857254 179.2252903 C-20.99940291 167.65382787 -21.00906845 156.08237254 -21.01292729 144.51090258 C-21.01336939 143.19236531 -21.01381148 141.87382803 -21.01426697 140.51533508 C-21.0144884 139.85468897 -21.01470983 139.19404286 -21.01493797 138.51337717 C-21.01864034 128.47461377 -21.03345949 118.43591046 -21.05528259 108.39717102 C-21.08053804 96.74095188 -21.0954583 85.08477996 -21.09696841 73.42853242 C-21.09801769 67.25794031 -21.10395158 61.08744422 -21.12178802 54.91687584 C-21.1382377 49.11306031 -21.14043926 43.3094133 -21.13164902 37.50558281 C-21.13087699 35.37468261 -21.13524306 33.24377347 -21.14510727 31.11289597 C-21.15777933 28.20506701 -21.15197563 25.29783915 -21.14152527 22.39001465 C-21.14958167 21.54574753 -21.15763808 20.70148042 -21.16593862 19.83162946 C-21.11244551 13.47229306 -19.63348989 9.41375223 -15.39903259 4.51069641 C-10.57279309 0.3739197 -6.18471896 -0.03243589 0 0 Z " fill="#FCFCFC" transform="translate(40.77403259277344,3.7393035888671875)"/>
<path d="M0 0 C0.77591368 -0.00382555 1.55182736 -0.00765109 2.35125357 -0.01159257 C4.94750017 -0.0218996 7.54352466 -0.01793481 10.13978577 -0.01396179 C12.00268763 -0.01830952 13.8655877 -0.02349288 15.72848511 -0.02944946 C20.78630197 -0.04284376 25.84404412 -0.04341767 30.90187526 -0.04088616 C35.12413941 -0.0398168 39.34638843 -0.04469891 43.56864935 -0.04949158 C53.52922195 -0.06058815 63.48975685 -0.06102326 73.45033264 -0.05497742 C83.72673255 -0.04893581 94.0029956 -0.06125306 104.27937216 -0.08254749 C113.10243253 -0.10015828 121.92544933 -0.10616569 130.74852663 -0.10290974 C136.01811828 -0.101096 141.28761229 -0.10374228 146.55718803 -0.11762428 C151.51236896 -0.13018957 156.46733636 -0.12827079 161.42251396 -0.11521339 C163.24057588 -0.11284528 165.05865277 -0.11559071 166.87669754 -0.12383652 C169.35969698 -0.1342858 171.84197757 -0.12621823 174.32495117 -0.11352539 C175.40253997 -0.12458682 175.40253997 -0.12458682 176.50189823 -0.13587171 C181.97710404 -0.07704237 186.03979201 1.24409856 190.08924866 4.97944641 C190.56749084 5.56725891 191.04573303 6.15507141 191.53846741 6.76069641 C192.02960022 7.34850891 192.52073303 7.93632141 193.02674866 8.54194641 C195.90250621 12.66355333 195.37129953 17.2064439 195.3664093 22.00906372 C195.36938042 22.91394222 195.37235155 23.81882073 195.3754127 24.75111979 C195.38411291 27.79574379 195.38560907 30.84032853 195.38710022 33.88496399 C195.39172744 36.06283655 195.39675197 38.2407083 195.40214539 40.4185791 C195.41528024 46.34423486 195.42171641 52.26987929 195.42615604 58.19554734 C195.42908489 61.89573396 195.43318933 65.59591747 195.43766022 69.29610252 C195.45133773 80.86756495 195.46100326 92.43902028 195.46486211 104.01049024 C195.46552525 105.98829615 195.46552525 105.98829615 195.46620178 108.00605774 C195.46653393 108.99702691 195.46653393 108.99702691 195.46687278 110.00801565 C195.47057515 120.04677905 195.4853943 130.08548236 195.50721741 140.1242218 C195.53247285 151.78044095 195.54739311 163.43661286 195.54890323 175.0928604 C195.5499525 181.26345251 195.5558864 187.43394861 195.57372284 193.60451698 C195.59017251 199.40833251 195.59237407 205.21197952 195.58358383 211.01581001 C195.58281181 213.14671021 195.58717787 215.27761935 195.59704208 217.40849686 C195.60971414 220.31632582 195.60391044 223.22355367 195.59346008 226.13137817 C195.60554469 227.39777884 195.60554469 227.39777884 195.61787343 228.68976337 C195.56932337 234.46146301 194.55629921 238.73440489 190.50721741 243.12397766 C189.91940491 243.60221985 189.33159241 244.08046204 188.72596741 244.57319641 C188.13815491 245.06432922 187.55034241 245.55546204 186.94471741 246.06147766 C183.12335571 248.72774593 179.1472362 248.40645182 174.69244385 248.40113831 C173.53113661 248.40559499 173.53113661 248.40559499 172.34636861 248.41014171 C169.74396816 248.41883509 167.14161367 248.42033749 164.53919983 248.42182922 C162.67659405 248.42645694 160.81398922 248.43148153 158.9513855 248.43687439 C153.88520651 248.45000471 148.81904078 248.45644456 143.75284743 248.46088505 C140.58869164 248.46381469 137.42453948 248.46791929 134.26038551 248.47238922 C124.36334633 248.48606568 114.46631543 248.49573167 104.56926745 248.49959111 C93.13921296 248.50407268 81.709278 248.52162454 70.27925986 248.55059171 C61.44775369 248.57219762 52.61628118 248.58229481 43.78474885 248.58363223 C38.50841162 248.58468102 33.23218674 248.5906046 27.9558773 248.60845184 C22.99252758 248.62491368 18.02937488 248.62709718 13.06600761 248.61831284 C11.24471764 248.61754146 9.42341716 248.62189845 7.60215378 248.63177109 C5.11468131 248.64446385 2.62790946 248.63862854 0.14044189 248.62818909 C-0.57931487 248.63624549 -1.29907164 248.6443019 -2.04063922 248.65260243 C-7.52165922 248.59884913 -11.58356545 247.28125311 -15.63731384 243.54194641 C-16.11555603 242.95413391 -16.59379822 242.36632141 -17.08653259 241.76069641 C-17.57766541 241.17288391 -18.06879822 240.58507141 -18.57481384 239.97944641 C-21.45057139 235.8578395 -20.91936472 231.31494893 -20.91447449 226.5123291 C-20.91744561 225.6074506 -20.92041673 224.70257209 -20.92347789 223.77027303 C-20.93217809 220.72564903 -20.93367425 217.68106429 -20.93516541 214.63642883 C-20.93979263 212.45855627 -20.94481716 210.28068452 -20.95021057 208.10281372 C-20.96334543 202.17715796 -20.9697816 196.25151353 -20.97422123 190.32584548 C-20.97715008 186.62565886 -20.98125452 182.92547535 -20.9857254 179.2252903 C-20.99940291 167.65382787 -21.00906845 156.08237254 -21.01292729 144.51090258 C-21.01336939 143.19236531 -21.01381148 141.87382803 -21.01426697 140.51533508 C-21.0144884 139.85468897 -21.01470983 139.19404286 -21.01493797 138.51337717 C-21.01864034 128.47461377 -21.03345949 118.43591046 -21.05528259 108.39717102 C-21.08053804 96.74095188 -21.0954583 85.08477996 -21.09696841 73.42853242 C-21.09801769 67.25794031 -21.10395158 61.08744422 -21.12178802 54.91687584 C-21.1382377 49.11306031 -21.14043926 43.3094133 -21.13164902 37.50558281 C-21.13087699 35.37468261 -21.13524306 33.24377347 -21.14510727 31.11289597 C-21.15777933 28.20506701 -21.15197563 25.29783915 -21.14152527 22.39001465 C-21.14958167 21.54574753 -21.15763808 20.70148042 -21.16593862 19.83162946 C-21.11244551 13.47229306 -19.63348989 9.41375223 -15.39903259 4.51069641 C-10.57279309 0.3739197 -6.18471896 -0.03243589 0 0 Z M-13.77403259 60.26069641 C-13.85653259 89.03257141 -13.93903259 117.80444641 -14.02403259 147.44819641 C-14.06044861 156.53890686 -14.09686462 165.62961731 -14.13438416 174.99580383 C-14.14776043 183.13213045 -14.14776043 183.13213045 -14.1558075 191.26846313 C-14.15953988 194.89750921 -14.17455234 198.52632214 -14.19633484 202.15530396 C-14.22374151 206.78246805 -14.23200289 211.4092924 -14.2263217 216.03653014 C-14.22750991 217.73585205 -14.23545977 219.43518567 -14.25089312 221.13443792 C-14.27076424 223.42863872 -14.26600433 225.72151645 -14.25505066 228.01574707 C-14.25873783 229.30164828 -14.262425 230.5875495 -14.26622391 231.91241741 C-13.68247053 235.88357479 -12.62037787 237.47556945 -9.77403259 240.26069641 C-6.26127558 242.81625464 -2.45503638 242.54642122 1.72789001 242.52812195 C2.48661506 242.53265306 3.2453401 242.53718417 4.02705681 242.54185259 C6.57112396 242.55451965 9.11497767 242.55287475 11.65907288 242.55122375 C13.48241959 242.55720756 15.30576378 242.56401276 17.12910461 242.57157898 C22.08367158 242.58926099 27.03816948 242.59393528 31.99276495 242.59521055 C36.12799375 242.597109 40.26320644 242.60446588 44.39842904 242.61155474 C54.15426392 242.62784456 63.91006189 242.63272314 73.66590881 242.63130188 C83.73158216 242.63010018 93.79704118 242.65120627 103.86266029 242.68278921 C112.50311317 242.70893489 121.14349598 242.7196699 129.78398812 242.71839106 C134.94520418 242.71788094 140.10622978 242.723592 145.26740646 242.74474716 C150.12166629 242.76410081 154.97555344 242.76427369 159.82982635 242.7497139 C161.61080341 242.74762115 163.39180362 242.7523544 165.17274094 242.76443481 C167.60562513 242.77986784 170.03722113 242.77059299 172.47007751 242.75517273 C173.17358837 242.76545986 173.87709923 242.77574698 174.60192859 242.78634584 C179.57759738 242.71673101 182.40008887 241.38572241 186.22596741 238.26069641 C188.70226236 234.54625398 188.47282837 232.6930814 188.46647644 228.2562561 C188.46818848 227.54080124 188.46990051 226.82534637 188.47166443 226.08821106 C188.47498142 223.67726255 188.46391722 221.26659034 188.45301819 218.85566711 C188.4524057 217.10314791 188.4526722 215.35062822 188.4537487 213.59810925 C188.45420095 208.89717436 188.44259393 204.19634091 188.42852783 199.49542999 C188.41715337 195.08722609 188.41660243 190.67904709 188.41517639 186.27082825 C188.4046741 173.37160415 188.37675189 160.47239901 188.35096741 147.57319641 C188.30971741 118.76007141 188.26846741 89.94694641 188.22596741 60.26069641 C121.56596741 60.26069641 54.90596741 60.26069641 -13.77403259 60.26069641 Z " fill="#EFAD37" transform="translate(40.77403259277344,3.7393035888671875)"/>
<path d="M0 0 C0.77591368 -0.00382555 1.55182736 -0.00765109 2.35125357 -0.01159257 C4.94750017 -0.0218996 7.54352466 -0.01793481 10.13978577 -0.01396179 C12.00268763 -0.01830952 13.8655877 -0.02349288 15.72848511 -0.02944946 C20.78630197 -0.04284376 25.84404412 -0.04341767 30.90187526 -0.04088616 C35.12413941 -0.0398168 39.34638843 -0.04469891 43.56864935 -0.04949158 C53.52922195 -0.06058815 63.48975685 -0.06102326 73.45033264 -0.05497742 C83.72673255 -0.04893581 94.0029956 -0.06125306 104.27937216 -0.08254749 C113.10243253 -0.10015828 121.92544933 -0.10616569 130.74852663 -0.10290974 C136.01811828 -0.101096 141.28761229 -0.10374228 146.55718803 -0.11762428 C151.51236896 -0.13018957 156.46733636 -0.12827079 161.42251396 -0.11521339 C163.24057588 -0.11284528 165.05865277 -0.11559071 166.87669754 -0.12383652 C169.35969698 -0.1342858 171.84197757 -0.12621823 174.32495117 -0.11352539 C175.40253997 -0.12458682 175.40253997 -0.12458682 176.50189823 -0.13587171 C181.97710404 -0.07704237 186.03979201 1.24409856 190.08924866 4.97944641 C190.56749084 5.56725891 191.04573303 6.15507141 191.53846741 6.76069641 C192.02960022 7.34850891 192.52073303 7.93632141 193.02674866 8.54194641 C195.90250621 12.66355333 195.37129953 17.2064439 195.3664093 22.00906372 C195.36938042 22.91394222 195.37235155 23.81882073 195.3754127 24.75111979 C195.38411291 27.79574379 195.38560907 30.84032853 195.38710022 33.88496399 C195.39172744 36.06283655 195.39675197 38.2407083 195.40214539 40.4185791 C195.41528024 46.34423486 195.42171641 52.26987929 195.42615604 58.19554734 C195.42908489 61.89573396 195.43318933 65.59591747 195.43766022 69.29610252 C195.45133773 80.86756495 195.46100326 92.43902028 195.46486211 104.01049024 C195.46552525 105.98829615 195.46552525 105.98829615 195.46620178 108.00605774 C195.46653393 108.99702691 195.46653393 108.99702691 195.46687278 110.00801565 C195.47057515 120.04677905 195.4853943 130.08548236 195.50721741 140.1242218 C195.53247285 151.78044095 195.54739311 163.43661286 195.54890323 175.0928604 C195.5499525 181.26345251 195.5558864 187.43394861 195.57372284 193.60451698 C195.59017251 199.40833251 195.59237407 205.21197952 195.58358383 211.01581001 C195.58281181 213.14671021 195.58717787 215.27761935 195.59704208 217.40849686 C195.60971414 220.31632582 195.60391044 223.22355367 195.59346008 226.13137817 C195.60554469 227.39777884 195.60554469 227.39777884 195.61787343 228.68976337 C195.56932337 234.46146301 194.55629921 238.73440489 190.50721741 243.12397766 C189.91940491 243.60221985 189.33159241 244.08046204 188.72596741 244.57319641 C188.13815491 245.06432922 187.55034241 245.55546204 186.94471741 246.06147766 C183.12335571 248.72774593 179.1472362 248.40645182 174.69244385 248.40113831 C173.53113661 248.40559499 173.53113661 248.40559499 172.34636861 248.41014171 C169.74396816 248.41883509 167.14161367 248.42033749 164.53919983 248.42182922 C162.67659405 248.42645694 160.81398922 248.43148153 158.9513855 248.43687439 C153.88520651 248.45000471 148.81904078 248.45644456 143.75284743 248.46088505 C140.58869164 248.46381469 137.42453948 248.46791929 134.26038551 248.47238922 C124.36334633 248.48606568 114.46631543 248.49573167 104.56926745 248.49959111 C93.13921296 248.50407268 81.709278 248.52162454 70.27925986 248.55059171 C61.44775369 248.57219762 52.61628118 248.58229481 43.78474885 248.58363223 C38.50841162 248.58468102 33.23218674 248.5906046 27.9558773 248.60845184 C22.99252758 248.62491368 18.02937488 248.62709718 13.06600761 248.61831284 C11.24471764 248.61754146 9.42341716 248.62189845 7.60215378 248.63177109 C5.11468131 248.64446385 2.62790946 248.63862854 0.14044189 248.62818909 C-0.57931487 248.63624549 -1.29907164 248.6443019 -2.04063922 248.65260243 C-7.52165922 248.59884913 -11.58356545 247.28125311 -15.63731384 243.54194641 C-16.11555603 242.95413391 -16.59379822 242.36632141 -17.08653259 241.76069641 C-17.57766541 241.17288391 -18.06879822 240.58507141 -18.57481384 239.97944641 C-21.45057139 235.8578395 -20.91936472 231.31494893 -20.91447449 226.5123291 C-20.91744561 225.6074506 -20.92041673 224.70257209 -20.92347789 223.77027303 C-20.93217809 220.72564903 -20.93367425 217.68106429 -20.93516541 214.63642883 C-20.93979263 212.45855627 -20.94481716 210.28068452 -20.95021057 208.10281372 C-20.96334543 202.17715796 -20.9697816 196.25151353 -20.97422123 190.32584548 C-20.97715008 186.62565886 -20.98125452 182.92547535 -20.9857254 179.2252903 C-20.99940291 167.65382787 -21.00906845 156.08237254 -21.01292729 144.51090258 C-21.01336939 143.19236531 -21.01381148 141.87382803 -21.01426697 140.51533508 C-21.0144884 139.85468897 -21.01470983 139.19404286 -21.01493797 138.51337717 C-21.01864034 128.47461377 -21.03345949 118.43591046 -21.05528259 108.39717102 C-21.08053804 96.74095188 -21.0954583 85.08477996 -21.09696841 73.42853242 C-21.09801769 67.25794031 -21.10395158 61.08744422 -21.12178802 54.91687584 C-21.1382377 49.11306031 -21.14043926 43.3094133 -21.13164902 37.50558281 C-21.13087699 35.37468261 -21.13524306 33.24377347 -21.14510727 31.11289597 C-21.15777933 28.20506701 -21.15197563 25.29783915 -21.14152527 22.39001465 C-21.14958167 21.54574753 -21.15763808 20.70148042 -21.16593862 19.83162946 C-21.11244551 13.47229306 -19.63348989 9.41375223 -15.39903259 4.51069641 C-10.57279309 0.3739197 -6.18471896 -0.03243589 0 0 Z M-11.77403259 10.26069641 C-19.33748963 22.86645814 -14.77403259 39.55997836 -14.77403259 54.26069641 C52.21596741 54.26069641 119.20596741 54.26069641 188.22596741 54.26069641 C191.03336911 29.57435095 191.03336911 29.57435095 184.22596741 8.26069641 C180.7132104 5.70513818 176.90697119 5.9749716 172.7240448 5.99327087 C171.96531976 5.98873976 171.20659471 5.98420865 170.424878 5.97954023 C167.88081085 5.96687318 165.33695715 5.96851807 162.79286194 5.97016907 C160.96951522 5.96418527 159.14617104 5.95738006 157.3228302 5.94981384 C152.36826323 5.93213183 147.41376533 5.92745754 142.45916986 5.92618227 C138.32394107 5.92428383 134.18872838 5.91692694 130.05350578 5.90983808 C120.29767089 5.89354826 110.54187292 5.88866968 100.786026 5.89009094 C90.72035265 5.89129264 80.65489363 5.87018656 70.58927453 5.83860362 C61.94882164 5.81245794 53.30843884 5.80172293 44.6679467 5.80300176 C39.50673064 5.80351189 34.34570503 5.79780083 29.18452835 5.77664566 C24.33026852 5.75729201 19.47638138 5.75711913 14.62210846 5.77167892 C12.8411314 5.77377167 11.06013119 5.76903843 9.27919388 5.75695801 C6.84630968 5.74152498 4.41471368 5.75079983 1.9818573 5.76622009 C1.27834644 5.75593297 0.57483559 5.74564584 -0.14999378 5.73504698 C-5.13874498 5.80484485 -7.9819732 7.05954107 -11.77403259 10.26069641 Z M-13.77403259 60.26069641 C-13.85653259 89.03257141 -13.93903259 117.80444641 -14.02403259 147.44819641 C-14.06044861 156.53890686 -14.09686462 165.62961731 -14.13438416 174.99580383 C-14.14776043 183.13213045 -14.14776043 183.13213045 -14.1558075 191.26846313 C-14.15953988 194.89750921 -14.17455234 198.52632214 -14.19633484 202.15530396 C-14.22374151 206.78246805 -14.23200289 211.4092924 -14.2263217 216.03653014 C-14.22750991 217.73585205 -14.23545977 219.43518567 -14.25089312 221.13443792 C-14.27076424 223.42863872 -14.26600433 225.72151645 -14.25505066 228.01574707 C-14.25873783 229.30164828 -14.262425 230.5875495 -14.26622391 231.91241741 C-13.68247053 235.88357479 -12.62037787 237.47556945 -9.77403259 240.26069641 C-6.26127558 242.81625464 -2.45503638 242.54642122 1.72789001 242.52812195 C2.48661506 242.53265306 3.2453401 242.53718417 4.02705681 242.54185259 C6.57112396 242.55451965 9.11497767 242.55287475 11.65907288 242.55122375 C13.48241959 242.55720756 15.30576378 242.56401276 17.12910461 242.57157898 C22.08367158 242.58926099 27.03816948 242.59393528 31.99276495 242.59521055 C36.12799375 242.597109 40.26320644 242.60446588 44.39842904 242.61155474 C54.15426392 242.62784456 63.91006189 242.63272314 73.66590881 242.63130188 C83.73158216 242.63010018 93.79704118 242.65120627 103.86266029 242.68278921 C112.50311317 242.70893489 121.14349598 242.7196699 129.78398812 242.71839106 C134.94520418 242.71788094 140.10622978 242.723592 145.26740646 242.74474716 C150.12166629 242.76410081 154.97555344 242.76427369 159.82982635 242.7497139 C161.61080341 242.74762115 163.39180362 242.7523544 165.17274094 242.76443481 C167.60562513 242.77986784 170.03722113 242.77059299 172.47007751 242.75517273 C173.17358837 242.76545986 173.87709923 242.77574698 174.60192859 242.78634584 C179.57759738 242.71673101 182.40008887 241.38572241 186.22596741 238.26069641 C188.70226236 234.54625398 188.47282837 232.6930814 188.46647644 228.2562561 C188.46818848 227.54080124 188.46990051 226.82534637 188.47166443 226.08821106 C188.47498142 223.67726255 188.46391722 221.26659034 188.45301819 218.85566711 C188.4524057 217.10314791 188.4526722 215.35062822 188.4537487 213.59810925 C188.45420095 208.89717436 188.44259393 204.19634091 188.42852783 199.49542999 C188.41715337 195.08722609 188.41660243 190.67904709 188.41517639 186.27082825 C188.4046741 173.37160415 188.37675189 160.47239901 188.35096741 147.57319641 C188.30971741 118.76007141 188.26846741 89.94694641 188.22596741 60.26069641 C121.56596741 60.26069641 54.90596741 60.26069641 -13.77403259 60.26069641 Z " fill="#070707" transform="translate(40.77403259277344,3.7393035888671875)"/>
<path d="M0 0 C1.78854404 -0.01653657 3.57702261 -0.04379646 5.36523438 -0.08203125 C7.94891511 -0.13697269 10.53104709 -0.15870078 13.11523438 -0.17333984 C13.90919617 -0.19600922 14.70315796 -0.21867859 15.5211792 -0.24203491 C20.02813406 -0.22499641 23.46230672 0.28440331 26.87136841 3.60214233 C29.17708958 7.36177998 28.72817662 11.66871812 28.63476562 15.94384766 C28.63339096 16.96812866 28.6320163 17.99240967 28.63059998 19.04772949 C28.62155178 21.20966033 28.59794957 23.3715727 28.56079102 25.53320312 C28.50604714 28.83875969 28.49926195 32.14179144 28.5 35.44775391 C28.48525144 37.55064024 28.46776513 39.65350952 28.44726562 41.75634766 C28.44225792 43.23621155 28.44225792 43.23621155 28.43714905 44.74597168 C28.25487712 53.54988328 28.25487712 53.54988328 24.94335938 57.35009766 C18.83648861 59.38572124 11.73972773 58.65779396 5.32910156 58.70019531 C3.49205873 58.71676574 1.65508065 58.74407024 -0.18164062 58.78222656 C-2.83562521 58.83704126 -5.48810349 58.85887302 -8.14257812 58.87353516 C-8.96043793 58.89620453 -9.77829773 58.9188739 -10.62094116 58.94223022 C-14.5857762 58.92756925 -16.63091163 58.61174826 -20.07446289 56.49536133 C-22.98383033 51.87885921 -22.75574617 47.85857058 -22.68554688 42.50244141 C-22.68795883 41.45359268 -22.69037079 40.40474396 -22.69285583 39.32411194 C-22.69187794 37.11097424 -22.67849828 34.89781191 -22.65356445 32.68481445 C-22.61922279 29.29570593 -22.63291799 25.9092001 -22.65234375 22.52001953 C-22.6454462 20.36831572 -22.63577466 18.21661863 -22.62304688 16.06494141 C-22.62800674 15.05133041 -22.63296661 14.03771942 -22.63807678 12.99339294 C-22.52054452 5.98320049 -22.52054452 5.98320049 -20.14624023 2.74291992 C-14.33445272 -1.13092606 -6.79311447 0.04603393 0 0 Z " fill="#CDCFCE" transform="translate(192.056640625,159.64990234375)"/>
<path d="M0 0 C1.01317291 -0.00788544 1.01317291 -0.00788544 2.04681396 -0.01593018 C4.2684272 -0.02908011 6.48931761 -0.0204105 8.7109375 -0.01025391 C10.26123186 -0.0122761 11.81152529 -0.01518875 13.36181641 -0.01895142 C16.60653769 -0.02336796 19.85101075 -0.01696547 23.09570312 -0.00292969 C27.24858358 0.01416203 31.40088233 0.00431723 35.55374146 -0.01364708 C38.75370645 -0.02450314 41.95353422 -0.02103026 45.15350342 -0.0132637 C46.68446929 -0.01126672 48.21544775 -0.0137033 49.74639893 -0.02070236 C51.88855857 -0.02834717 54.02978464 -0.0166717 56.171875 0 C57.9979126 0.00358017 57.9979126 0.00358017 59.86083984 0.00723267 C64.54037439 0.55998276 67.07662598 2.40615076 70.3984375 5.63818359 C72.5895484 9.20888285 72.59357326 11.25457809 72.0859375 15.38818359 C70.76240974 19.21170822 69.8685633 20.90788095 66.40124512 23.03579712 C62.72739967 24.53443902 60.12161604 24.76846239 56.16601562 24.77636719 C55.16966347 24.78425262 55.16966347 24.78425262 54.15318298 24.79229736 C51.97427315 24.80541849 49.79610377 24.79678806 47.6171875 24.78662109 C46.09313823 24.78864411 44.56908991 24.79155745 43.04504395 24.7953186 C39.85757187 24.79973125 36.67035273 24.79334531 33.48291016 24.77929688 C29.40750237 24.76220537 25.33268739 24.77205228 21.25730133 24.79001427 C18.11219863 24.80088093 14.96723531 24.79739261 11.8221283 24.78963089 C10.31989979 24.78763683 8.81765842 24.79006012 7.31544495 24.79706955 C5.21191124 24.80473195 3.10932308 24.79301465 1.00585938 24.77636719 C-0.78567566 24.77278702 -0.78567566 24.77278702 -2.61340332 24.76913452 C-7.29645836 24.22863214 -10.7023582 22.80183861 -13.7890625 19.20068359 C-15.69323508 14.44025214 -15.72386285 10.30613179 -13.7265625 5.57568359 C-9.78910501 0.82357973 -6.01961685 0.01180219 0 0 Z " fill="#050403" transform="translate(147.9140625,21.61181640625)"/>
<path d="M0 0 C0.80373047 -0.020625 1.60746094 -0.04125 2.43554688 -0.0625 C7.49100682 -0.09556924 10.93699768 0.44194134 15.3125 3.25 C18.36004309 6.62700721 20.17841273 8.88230987 20.625 13.4375 C20.32700053 17.07309354 20.03488612 18.05134794 18.1875 20.9375 C17.56875 22.030625 16.95 23.12375 16.3125 24.25 C16.8125 26.5 16.8125 26.5 18.3125 28.25 C20.62174677 31.97045313 20.75472127 34.90149083 20.3125 39.25 C18.56240974 44.25924038 16.07423174 46.88004474 11.33862305 49.44946289 C7.76183525 50.86267981 4.29640106 50.7501199 0.5 50.625 C-0.26248047 50.62371094 -1.02496094 50.62242187 -1.81054688 50.62109375 C-7.4054498 50.5320502 -7.4054498 50.5320502 -9.6875 48.25 C-9.93473816 46.23191833 -9.93473816 46.23191833 -9.93041992 43.72436523 C-9.93349655 42.78676865 -9.93657318 41.84917206 -9.93974304 40.88316345 C-9.93255753 39.86855545 -9.92537201 38.85394745 -9.91796875 37.80859375 C-9.91751053 36.77058121 -9.91705231 35.73256866 -9.9165802 34.6631012 C-9.91355583 32.46655129 -9.90566405 30.27000357 -9.89331055 28.07348633 C-9.8750568 24.69800278 -9.87280079 21.32279336 -9.87304688 17.94726562 C-9.86813177 15.81770594 -9.86230349 13.68814813 -9.85546875 11.55859375 C-9.85435593 10.54196152 -9.8532431 9.52532928 -9.85209656 8.47789001 C-9.84571671 7.54344559 -9.83933685 6.60900116 -9.83276367 5.64624023 C-9.82895187 4.8195433 -9.82514008 3.99284637 -9.82121277 3.14109802 C-9.48165712 -1.66123331 -3.67434932 0.02301863 0 0 Z " fill="#0C0C0C" transform="translate(65.6875,78.75)"/>
<path d="M0 0 C3.98943215 2.03098364 6.71070125 4.16105983 9 8 C9.55419677 12.37363382 9.47276634 16.75787361 9.44604492 21.16186523 C9.43756655 23.29575087 9.46625331 25.42692769 9.49804688 27.56054688 C9.564858 40.37915481 9.564858 40.37915481 5 46 C1.10955983 48.74099193 -2.36823451 49.5532373 -7.04296875 49.34765625 C-10.44375839 48.74352396 -12.44572722 47.25726432 -15 45 C-18.77364339 38.76614154 -18.55835718 32.73459101 -18.5559082 25.68725586 C-18.56247591 23.5702654 -18.61703322 21.45796015 -18.67382812 19.34179688 C-18.81336891 8.02930073 -18.81336891 8.02930073 -15.08984375 3.58984375 C-10.55982349 -0.67504501 -6.0175161 -0.67477523 0 0 Z " fill="#0C0C0C" transform="translate(151,80)"/>
<path d="M0 0 C1.78854404 -0.01653657 3.57702261 -0.04379646 5.36523438 -0.08203125 C7.94891511 -0.13697269 10.53104709 -0.15870078 13.11523438 -0.17333984 C13.90919617 -0.19600922 14.70315796 -0.21867859 15.5211792 -0.24203491 C20.02813406 -0.22499641 23.46230672 0.28440331 26.87136841 3.60214233 C29.17708958 7.36177998 28.72817662 11.66871812 28.63476562 15.94384766 C28.63339096 16.96812866 28.6320163 17.99240967 28.63059998 19.04772949 C28.62155178 21.20966033 28.59794957 23.3715727 28.56079102 25.53320312 C28.50604714 28.83875969 28.49926195 32.14179144 28.5 35.44775391 C28.48525144 37.55064024 28.46776513 39.65350952 28.44726562 41.75634766 C28.44225792 43.23621155 28.44225792 43.23621155 28.43714905 44.74597168 C28.25487712 53.54988328 28.25487712 53.54988328 24.94335938 57.35009766 C18.83648861 59.38572124 11.73972773 58.65779396 5.32910156 58.70019531 C3.49205873 58.71676574 1.65508065 58.74407024 -0.18164062 58.78222656 C-2.83562521 58.83704126 -5.48810349 58.85887302 -8.14257812 58.87353516 C-8.96043793 58.89620453 -9.77829773 58.9188739 -10.62094116 58.94223022 C-14.5857762 58.92756925 -16.63091163 58.61174826 -20.07446289 56.49536133 C-22.98383033 51.87885921 -22.75574617 47.85857058 -22.68554688 42.50244141 C-22.68795883 41.45359268 -22.69037079 40.40474396 -22.69285583 39.32411194 C-22.69187794 37.11097424 -22.67849828 34.89781191 -22.65356445 32.68481445 C-22.61922279 29.29570593 -22.63291799 25.9092001 -22.65234375 22.52001953 C-22.6454462 20.36831572 -22.63577466 18.21661863 -22.62304688 16.06494141 C-22.62800674 15.05133041 -22.63296661 14.03771942 -22.63807678 12.99339294 C-22.52054452 5.98320049 -22.52054452 5.98320049 -20.14624023 2.74291992 C-14.33445272 -1.13092606 -6.79311447 0.04603393 0 0 Z M-16.05664062 7.35009766 C-16.15459374 8.72619648 -16.18462151 10.10723648 -16.18603516 11.48681641 C-16.18918732 12.36442627 -16.19233948 13.24203613 -16.19558716 14.14624023 C-16.19356293 15.10038818 -16.1915387 16.05453613 -16.18945312 17.03759766 C-16.19040985 18.01043701 -16.19136658 18.98327637 -16.19235229 19.9855957 C-16.19303421 22.04687566 -16.19117915 24.10815774 -16.18701172 26.16943359 C-16.18166363 29.33647454 -16.18695635 32.50337366 -16.19335938 35.67041016 C-16.1926986 37.6678063 -16.19141744 39.66520236 -16.18945312 41.66259766 C-16.19147736 42.61674561 -16.19350159 43.57089355 -16.19558716 44.55395508 C-16.192435 45.43156494 -16.18928284 46.3091748 -16.18603516 47.21337891 C-16.18523956 47.98979736 -16.18444397 48.76621582 -16.18362427 49.56616211 C-16.25067604 51.37443427 -16.25067604 51.37443427 -15.05664062 52.35009766 C-12.40207869 52.4510533 -9.77408887 52.48980764 -7.11914062 52.48291016 C-5.92623413 52.48434525 -5.92623413 52.48434525 -4.70922852 52.48580933 C-3.02457602 52.48649109 -1.33992091 52.48463708 0.34472656 52.48046875 C2.93235134 52.47512041 5.51980253 52.48041385 8.10742188 52.48681641 C9.74023476 52.48615562 11.37304754 52.48487446 13.00585938 52.48291016 C13.78501709 52.48493439 14.5641748 52.48695862 15.36694336 52.48904419 C18.95130138 52.80849345 18.95130138 52.80849345 21.94335938 51.35009766 C22.04131249 49.97399884 22.07134026 48.59295883 22.07275391 47.21337891 C22.07748215 45.89696411 22.07748215 45.89696411 22.08230591 44.55395508 C22.08028168 43.59980713 22.07825745 42.64565918 22.07617188 41.66259766 C22.0771286 40.6897583 22.07808533 39.71691895 22.07907104 38.71459961 C22.07975296 36.65331966 22.0778979 34.59203757 22.07373047 32.53076172 C22.06838238 29.36372077 22.0736751 26.19682166 22.08007812 23.02978516 C22.07941735 21.03238901 22.07813619 19.03499295 22.07617188 17.03759766 C22.07819611 16.08344971 22.08022034 15.12930176 22.08230591 14.14624023 C22.07915375 13.26863037 22.07600159 12.39102051 22.07275391 11.48681641 C22.07195831 10.71039795 22.07116272 9.93397949 22.07034302 9.1340332 C22.13739479 7.32576104 22.13739479 7.32576104 20.94335938 6.35009766 C18.28879744 6.24914201 15.66080762 6.21038767 13.00585938 6.21728516 C12.21058838 6.21632843 11.41531738 6.2153717 10.59594727 6.21438599 C8.91129477 6.21370423 7.22663966 6.21555823 5.54199219 6.21972656 C2.95436741 6.2250749 0.36691622 6.21978147 -2.22070312 6.21337891 C-3.85351601 6.21403969 -5.48632879 6.21532085 -7.11914062 6.21728516 C-7.89829834 6.21526093 -8.67745605 6.21323669 -9.48022461 6.21115112 C-13.06458263 5.89170186 -13.06458263 5.89170186 -16.05664062 7.35009766 Z " fill="#050505" transform="translate(192.056640625,159.64990234375)"/>
<path d="M0 0 C0.65725571 -0.00525696 1.31451141 -0.01051392 1.99168396 -0.01593018 C4.16405007 -0.0291323 6.33568308 -0.02039103 8.50805664 -0.01025391 C10.01876465 -0.01227484 11.52947172 -0.01518644 13.04017639 -0.01895142 C16.20689173 -0.02337523 19.37335323 -0.016943 22.54003906 -0.00292969 C26.5966743 0.01414789 30.65271347 0.00433089 34.70932674 -0.01364708 C37.82947771 -0.02449602 40.94948777 -0.02103329 44.06964302 -0.0132637 C45.5651513 -0.01126399 47.06067241 -0.01371295 48.5561657 -0.02070236 C50.64846462 -0.02833381 52.73980369 -0.01668986 54.83203125 0 C56.02211288 0.00238678 57.21219452 0.00477356 58.43833923 0.00723267 C61.71893087 0.41801207 63.09227287 1.16362839 65.48071289 3.38818359 C64.73071289 10.13818359 64.73071289 10.13818359 62.48071289 12.38818359 C59.6408844 12.64888 59.6408844 12.64888 55.96728516 12.6628418 C55.29881561 12.66795273 54.63034607 12.67306366 53.94161987 12.67832947 C51.72669581 12.69225632 49.51208185 12.69126639 47.29711914 12.68896484 C45.76016626 12.69285021 44.22321445 12.69718455 42.68626404 12.70195007 C39.46235679 12.70941901 36.23855904 12.70911627 33.01464844 12.70385742 C28.88056865 12.69806312 24.74693694 12.71498918 20.61293125 12.7382021 C17.43793613 12.75292537 14.26304925 12.75381306 11.08802605 12.75069237 C9.56377208 12.75120633 8.03951216 12.7564582 6.51529121 12.76650429 C4.38440878 12.77882412 2.25440327 12.77210478 0.12353516 12.76049805 C-1.08954819 12.76112747 -2.30263153 12.7617569 -3.55247498 12.7624054 C-6.51928711 12.38818359 -6.51928711 12.38818359 -8.411026 11.05241394 C-10.1471732 8.44531275 -9.89960936 6.43076159 -9.51928711 3.38818359 C-7.02878778 -0.32360944 -4.22691279 0.008483 0 0 Z " fill="#FCFCFC" transform="translate(148.519287109375,27.61181640625)"/>
<path d="M0 0 C6.05896204 2.07606893 10.08813 5.17626 13 11 C13.04022391 13.3329866 13.04320247 15.66706666 13 18 C11.35 18.33 9.7 18.66 8 19 C7.81824219 18.45730469 7.63648438 17.91460937 7.44921875 17.35546875 C7.19785156 16.64003906 6.94648438 15.92460938 6.6875 15.1875 C6.32205078 14.12595703 6.32205078 14.12595703 5.94921875 13.04296875 C4.56947086 10.07338791 2.91369039 8.4568452 0 7 C-2.87306228 6.49904977 -2.87306228 6.49904977 -6 7 C-8.57285724 9.172635 -10.48996919 10.97993838 -12 14 C-12.26752525 17.59821462 -12.23158496 21.2054541 -12.25 24.8125 C-12.270625 25.81087891 -12.29125 26.80925781 -12.3125 27.83789062 C-12.41321061 34.93214655 -12.41321061 34.93214655 -9 41 C-6.24739231 43.16276319 -4.99658993 42.99970087 -1.4375 42.6875 C1.96253117 42.08139779 1.96253117 42.08139779 5 41 C5.66 37.04 6.32 33.08 7 29 C3.7 29 0.4 29 -3 29 C-3.38218767 27.34385343 -3.71395102 25.67542976 -4 24 C-2.06658053 22.06658053 1.37479121 22.82550867 3.9375 22.8125 C5.20464844 22.79832031 6.47179687 22.78414062 7.77734375 22.76953125 C11 23 11 23 13 25 C13.70126991 31.59375861 14.10095973 38.48491623 10 44 C6.38721783 47.42263574 3.01815577 49.79145181 -2.03515625 50.140625 C-7.85932172 49.94082516 -11.0910978 47.91241147 -15.37109375 44.08203125 C-19.89154373 38.30409398 -19.33458262 31.486942 -19.3125 24.5 C-19.32861328 23.48035156 -19.34472656 22.46070312 -19.36132812 21.41015625 C-19.36558788 14.85866045 -18.92739719 10.10995203 -14.24609375 5.13671875 C-13.64925781 4.65847656 -13.05242187 4.18023437 -12.4375 3.6875 C-11.83808594 3.19636719 -11.23867187 2.70523438 -10.62109375 2.19921875 C-7.05900028 -0.43587208 -4.39778553 -0.35466012 0 0 Z " fill="#0C0C0C" transform="translate(187,78)"/>
<path d="M0 0 C0.86925078 0.00092179 1.73850157 0.00184359 2.63409328 0.00279331 C3.62833813 0.00141865 4.62258297 0.00004398 5.64695644 -0.00137234 C6.74674831 0.00222294 7.84654018 0.00581821 8.97965908 0.00952244 C10.70626011 0.0093034 10.70626011 0.0093034 12.46774197 0.00907993 C16.29326635 0.00977965 20.11874275 0.0175748 23.94425869 0.02539158 C26.58841837 0.02725555 29.2325784 0.02867955 31.87673855 0.0296793 C38.13825661 0.03279234 44.3997573 0.04100535 50.6612677 0.05102879 C57.78811781 0.06219078 64.91496874 0.06770059 72.04182541 0.07272422 C86.70592674 0.08318799 101.37001435 0.10078689 116.03410244 0.12304783 C116.41629011 1.7791944 116.74805346 3.44761807 117.03410244 5.12304783 C116.03410244 6.12304783 116.03410244 6.12304783 114.06820488 6.24609566 C113.1989541 6.24517386 112.32970331 6.24425207 111.4341116 6.24330235 C109.94274433 6.24536434 109.94274433 6.24536434 108.42124844 6.24746799 C107.32145657 6.24387272 106.2216647 6.24027744 105.0885458 6.23657322 C103.93747845 6.23671925 102.78641109 6.23686527 101.60046291 6.23701572 C97.77493853 6.236316 93.94946213 6.22852085 90.12394619 6.22070408 C87.47978651 6.21884011 84.83562648 6.21741611 82.19146633 6.21641636 C75.92994827 6.21330332 69.66844758 6.20509031 63.40693718 6.19506687 C56.28008707 6.18390487 49.15323614 6.17839506 42.02637947 6.17337143 C27.36227814 6.16290767 12.69819053 6.14530876 -1.96589756 6.12304783 C-2.34808523 4.46690126 -2.67984858 2.79847758 -2.96589756 1.12304783 C-1.96589756 0.12304783 -1.96589756 0.12304783 0 0 Z " fill="#010101" transform="translate(39.96589756011963,211.87695217132568)"/>
<path d="M0 0 C0.98294037 -0.00426498 1.96588074 -0.00852997 2.97860718 -0.01292419 C4.60955574 -0.01224442 4.60955574 -0.01224442 6.27345276 -0.0115509 C7.41155396 -0.01490952 8.54965515 -0.01826813 9.72224426 -0.02172852 C13.50568211 -0.03127161 17.28907587 -0.03318329 21.07252502 -0.03425598 C23.68947366 -0.03746615 26.30642211 -0.04083003 28.92337036 -0.04434204 C34.41718332 -0.05074466 39.91098423 -0.05222374 45.40480042 -0.05158997 C51.76172158 -0.05098901 58.11855792 -0.06154261 64.47545761 -0.07733363 C70.58208664 -0.09196455 76.68867485 -0.0955786 82.79532051 -0.09498024 C85.39775502 -0.09616451 88.00019007 -0.10061106 90.60261345 -0.10831261 C94.23515331 -0.11805596 97.86747221 -0.1152569 101.50001526 -0.10920715 C103.12792747 -0.11763641 103.12792747 -0.11763641 104.78872681 -0.12623596 C105.774487 -0.12204147 106.76024719 -0.11784698 107.77587891 -0.11352539 C108.63553473 -0.11407016 109.49519056 -0.11461493 110.38089657 -0.1151762 C112.45143127 0.13371277 112.45143127 0.13371277 114.45143127 2.13371277 C114.12143127 3.45371277 113.79143127 4.77371277 113.45143127 6.13371277 C74.51143127 6.13371277 35.57143127 6.13371277 -4.54856873 6.13371277 C-4.87856873 4.48371277 -5.20856873 2.83371277 -5.54856873 1.13371277 C-3.9411971 -0.47365885 -2.22496726 0.00433933 0 0 Z " fill="#060606" transform="translate(42.54856872558594,185.8662872314453)"/>
<path d="M0 0 C0.98294037 -0.00426498 1.96588074 -0.00852997 2.97860718 -0.01292419 C4.60955574 -0.01224442 4.60955574 -0.01224442 6.27345276 -0.0115509 C7.41155396 -0.01490952 8.54965515 -0.01826813 9.72224426 -0.02172852 C13.50568211 -0.03127161 17.28907587 -0.03318329 21.07252502 -0.03425598 C23.68947366 -0.03746615 26.30642211 -0.04083003 28.92337036 -0.04434204 C34.41718332 -0.05074466 39.91098423 -0.05222374 45.40480042 -0.05158997 C51.76172158 -0.05098901 58.11855792 -0.06154261 64.47545761 -0.07733363 C70.58208664 -0.09196455 76.68867485 -0.0955786 82.79532051 -0.09498024 C85.39775502 -0.09616451 88.00019007 -0.10061106 90.60261345 -0.10831261 C94.23515331 -0.11805596 97.86747221 -0.1152569 101.50001526 -0.10920715 C103.12792747 -0.11763641 103.12792747 -0.11763641 104.78872681 -0.12623596 C105.774487 -0.12204147 106.76024719 -0.11784698 107.77587891 -0.11352539 C108.63553473 -0.11407016 109.49519056 -0.11461493 110.38089657 -0.1151762 C112.45143127 0.13371277 112.45143127 0.13371277 114.45143127 2.13371277 C114.12143127 3.45371277 113.79143127 4.77371277 113.45143127 6.13371277 C74.51143127 6.13371277 35.57143127 6.13371277 -4.54856873 6.13371277 C-4.87856873 4.48371277 -5.20856873 2.83371277 -5.54856873 1.13371277 C-3.9411971 -0.47365885 -2.22496726 0.00433933 0 0 Z " fill="#0E0E0E" transform="translate(42.54856872558594,159.8662872314453)"/>
<path d="M0 0 C2.06132142 -0.10864945 4.12431321 -0.18588321 6.1875 -0.25 C7.33605469 -0.29640625 8.48460937 -0.3428125 9.66796875 -0.390625 C13.63979862 0.0750057 15.18771485 1.22370387 18 4 C19.71802382 7.43604765 19.1196618 11.38438896 19.09765625 15.1640625 C19.0962413 16.07127045 19.09482635 16.97847839 19.09336853 17.91317749 C19.08776096 20.81715155 19.07520718 23.72104915 19.0625 26.625 C19.05748598 28.59114472 19.0529229 30.55729065 19.04882812 32.5234375 C19.03778906 37.3489879 19.02051935 42.17448097 19 47 C14.05 47 9.1 47 4 47 C4 42.38 4 37.76 4 33 C5.485 32.505 5.485 32.505 7 32 C8.976394 27.63112906 9.59431869 23.75454953 9 19 C7.78262511 17.52633566 6.55792279 16.05471064 5.23828125 14.671875 C3.30760259 12.06515428 2.96063049 9.3028503 2.45703125 6.1484375 C1.9670348 3.84503537 1.13048832 2.05627916 0 0 Z " fill="#FBFBFB" transform="translate(210,11)"/>
<path d="M0 0 C3.67592245 3.2303561 5.8633035 5.2473846 6.5 10.25 C6.01562015 14.19423593 5.30173809 16.52828414 3.0625 19.8125 C-2.16833893 23.83622225 -8.62399804 23.61829057 -14.9375 22.8125 C-18.68845439 20.71196554 -20.28892288 18.69944691 -21.9375 14.8125 C-22.63358513 10.28794663 -22.55133227 6.8428613 -20.1875 2.875 C-14.57380936 -2.27088308 -7.00457528 -2.83163682 0 0 Z " fill="#090704" transform="translate(95.9375,23.1875)"/>
<path d="M0 0 C3.70752752 3.25813025 5.86919776 5.26608206 6.5 10.3125 C5.88336829 15.24555369 3.87651528 18.63415393 0.0625 21.8125 C-5.16108692 23.55369564 -11.94783532 24.26254336 -17.0234375 21.80078125 C-20.24500617 19.18423889 -21.70427822 16.85414641 -22.17578125 12.7265625 C-22.30665174 8.69024094 -22.298833 6.41902325 -20.1875 2.875 C-14.57380936 -2.27088308 -7.00457528 -2.83163682 0 0 Z " fill="#0A0804" transform="translate(58.9375,23.1875)"/>
<path d="M0 0 C2.90851562 2.17075689 3.88950496 3.34789107 4.50170898 6.9609375 C4.49985596 8.08757812 4.49800293 9.21421875 4.49609375 10.375 C4.49673828 11.60734375 4.49738281 12.8396875 4.49804688 14.109375 C4.47806641 15.39328125 4.45808594 16.6771875 4.4375 18 C4.44458984 19.28390625 4.45167969 20.5678125 4.45898438 21.890625 C4.3858027 32.65396097 4.3858027 32.65396097 1 36 C-2.375 37 -2.375 37 -6 37 C-8.68725586 35.41210938 -8.68725586 35.41210938 -11 33 C-11.63110352 29.94726562 -11.63110352 29.94726562 -11.62890625 26.40625 C-11.63083984 25.12878906 -11.63277344 23.85132812 -11.63476562 22.53515625 C-11.62227783 21.87273926 -11.60979004 21.21032227 -11.59692383 20.52783203 C-11.562592 18.50541971 -11.57626989 16.48737637 -11.59570312 14.46484375 C-11.52167832 4.68369936 -11.52167832 4.68369936 -9.18334961 1.61914062 C-5.99668166 -0.74404643 -3.8630472 -0.55186389 0 0 Z " fill="#FCFCFC" transform="translate(150,86)"/>
<path d="M0 0 C1.65 0.33 3.3 0.66 5 1 C5 14.86 5 28.72 5 43 C11.6 43 18.2 43 25 43 C25.33 44.65 25.66 46.3 26 48 C24.25454395 49.74545605 21.83875783 49.1302316 19.46875 49.1328125 C18.34855469 49.13410156 17.22835937 49.13539063 16.07421875 49.13671875 C14.89472656 49.13285156 13.71523437 49.12898438 12.5 49.125 C10.73076172 49.13080078 10.73076172 49.13080078 8.92578125 49.13671875 C7.24548828 49.13478516 7.24548828 49.13478516 5.53125 49.1328125 C4.49548828 49.13168457 3.45972656 49.13055664 2.39257812 49.12939453 C0 49 0 49 -1 48 C-1.09822744 46.53194708 -1.1279837 45.0592254 -1.12939453 43.58789062 C-1.13412277 42.18138245 -1.13412277 42.18138245 -1.13894653 40.74645996 C-1.1369223 39.72669067 -1.13489807 38.70692139 -1.1328125 37.65625 C-1.13376923 36.61682251 -1.13472595 35.57739502 -1.13571167 34.50646973 C-1.13639363 32.30395446 -1.13453827 30.10143721 -1.13037109 27.89892578 C-1.12502308 24.51460281 -1.13031559 21.13041256 -1.13671875 17.74609375 C-1.13605797 15.61197887 -1.13477681 13.47786408 -1.1328125 11.34375 C-1.13483673 10.32398071 -1.13686096 9.30421143 -1.13894653 8.25354004 C-1.13579437 7.31586792 -1.13264221 6.3781958 -1.12939453 5.41210938 C-1.12859894 4.58239624 -1.12780334 3.75268311 -1.12698364 2.89782715 C-1 1 -1 1 0 0 Z " fill="#080808" transform="translate(96,79)"/>
<path d="M0 0 C2.64 0 5.28 0 8 0 C8.02527124 6.24795675 8.04283344 12.49590041 8.05493164 18.74389648 C8.05997298 20.87118014 8.06680591 22.99846031 8.07543945 25.12573242 C8.08751379 28.17627826 8.09323014 31.22677845 8.09765625 34.27734375 C8.10281754 35.23462875 8.10797882 36.19191376 8.11329651 37.1782074 C8.11337204 38.05904495 8.11344757 38.93988251 8.11352539 39.84741211 C8.115746 40.62684677 8.11796661 41.40628143 8.12025452 42.20933533 C8 44 8 44 7 45 C4.69 45 2.38 45 0 45 C0 30.15 0 15.3 0 0 Z " fill="#FAF8F8" transform="translate(206,167)"/>
<path d="M0 0 C12.05357143 -0.66964286 12.05357143 -0.66964286 15.8125 2.0625 C18 5 18 5 18.1875 8.5625 C16.71996906 12.81061588 16.05629889 14.01161819 12 16 C7.93681235 16.32272714 4.08929129 16.17974907 0 16 C0 10.72 0 5.44 0 0 Z " fill="#F7F7F7" transform="translate(62,85)"/>
<path d="M0 0 C12.00763359 -0.60644614 12.00763359 -0.60644614 16.375 2.0625 C18 5 18 5 18 8.625 C16.65307892 13.17085863 16.65307892 13.17085863 14 15 C9.30736629 15.40971773 4.71873609 15.12987347 0 15 C0 10.05 0 5.1 0 0 Z " fill="#FAFAFA" transform="translate(62,107)"/>
<path d="M0 0 C2.16796875 0.34765625 2.16796875 0.34765625 4.79296875 1.97265625 C6.16796875 4.34765625 6.16796875 4.34765625 6.10546875 7.47265625 C5.16796875 10.34765625 5.16796875 10.34765625 2.16796875 12.34765625 C0.01171875 12.6484375 0.01171875 12.6484375 -2.33203125 12.66015625 C-3.4921875 12.68529297 -3.4921875 12.68529297 -4.67578125 12.7109375 C-7.35655607 12.25928522 -8.22299096 11.50822293 -9.83203125 9.34765625 C-10.47496037 4.20422326 -10.47496037 4.20422326 -8.5859375 1.6875 C-5.81204614 -0.43153059 -3.38086514 -0.12685138 0 0 Z " fill="#F8F8F8" transform="translate(89.83203125,27.65234375)"/>
<path d="M0 0 C2.16796875 0.34765625 2.16796875 0.34765625 4.79296875 1.97265625 C6.16796875 4.34765625 6.16796875 4.34765625 6.10546875 7.47265625 C5.16796875 10.34765625 5.16796875 10.34765625 2.16796875 12.34765625 C0.01171875 12.6484375 0.01171875 12.6484375 -2.33203125 12.66015625 C-3.4921875 12.68529297 -3.4921875 12.68529297 -4.67578125 12.7109375 C-7.35655607 12.25928522 -8.22299096 11.50822293 -9.83203125 9.34765625 C-10.47496037 4.20422326 -10.47496037 4.20422326 -8.5859375 1.6875 C-5.81204614 -0.43153059 -3.38086514 -0.12685138 0 0 Z " fill="#F8F8F8" transform="translate(52.83203125,27.65234375)"/>
</svg>
